# xmcd
#
# Track frame offsets:
#	150
#	15511
#	26143
#	39287
#	54419
#	66237
#	84102
#	99829
#	110936
#	122553
#	136781
#	148753
#	167561
#
# Disc length: 2432 seconds
#
# Revision: 2
# Processed by: cddbd v1.4PL0 Copyright (c) Steve Scherf et al.
# Submitted via: EZCDDA 4.3.2
#
DISCID=a2097e0d
DTITLE=Heidi Hauge - Country Blue
DYEAR=1900
DGENRE=
TTITLE0=Turn it on, turn it up, turn it loose
TTITLE1=Once a day
TTITLE2=En drøm om Nashville
TTITLE3=Lay down beside me
TTITLE4=Does my ring hurt your finger
TTITLE5=Kom ta min hånd
TTITLE6=We belive in happy endings
TTITLE7=Hello little bluebird
TTITLE8=Aldri min sjel
TTITLE9=Mama say a prayer
TTITLE10=Walk that line
TTITLE11=Siste dans
TTITLE12=Blue eyes crying in the rain
EXTD=
EXTT0=
EXTT1=
EXTT2=
EXTT3=
EXTT4=
EXTT5=
EXTT6=
EXTT7=
EXTT8=
EXTT9=
EXTT10=
EXTT11=
EXTT12=
PLAYORDER=
